<?xml version="1.0" encoding="UTF-8"?>
<svg xmlns="http://www.w3.org/2000/svg" xmlns:xlink="http://www.w3.org/1999/xlink" width="20px" height="23px"
    viewBox="-1 -1 22 24" version="1.1">
    <g id="surface1">
        <path style="stroke:#000;stroke-width:0.8;fill-rule:nonzero;fill:#5AC5E6;fill-opacity:1;"
            d="M 4.285156 0 C 1.921875 0 0 1.847656 0 4.125 L 0 17.875 C 0 20.152344 1.921875 22 4.285156 22 L 18.570312 22 C 19.359375 22 20 21.386719 20 20.625 C 20 19.863281 19.359375 19.25 18.570312 19.25 L 18.570312 16.5 C 19.359375 16.5 20 15.886719 20 15.125 L 20 1.375 C 20 0.613281 19.359375 0 18.570312 0 Z M 4.285156 16.5 L 15.714844 16.5 L 15.714844 19.25 L 4.285156 19.25 C 3.496094 19.25 2.859375 18.636719 2.859375 17.875 C 2.859375 17.113281 3.496094 16.5 4.285156 16.5 Z M 5.714844 6.1875 C 5.714844 5.808594 6.035156 5.5 6.429688 5.5 L 15 5.5 C 15.390625 5.5 15.714844 5.808594 15.714844 6.1875 C 15.714844 6.566406 15.390625 6.875 15 6.875 L 6.429688 6.875 C 6.035156 6.875 5.714844 6.566406 5.714844 6.1875 Z M 6.429688 8.25 L 15 8.25 C 15.390625 8.25 15.714844 8.558594 15.714844 8.9375 C 15.714844 9.316406 15.390625 9.625 15 9.625 L 6.429688 9.625 C 6.035156 9.625 5.714844 9.316406 5.714844 8.9375 C 5.714844 8.558594 6.035156 8.25 6.429688 8.25 Z M 6.429688 8.25 " />
    </g>
</svg>
