<?xml version="1.0" encoding="UTF-8"?>
<svg xmlns="http://www.w3.org/2000/svg" xmlns:xlink="http://www.w3.org/1999/xlink" width="20px" height="20px"
    viewBox="-1 -1 22 22" version="1.1">
    <g id="surface1">
        <path style="stroke:#000;stroke-width:0.8;fill-rule:nonzero;fill:#5AC5E6;fill-opacity:1;"
            d="M 9.507812 0.101562 L 0.757812 3.851562 C 0.210938 4.085938 -0.09375 4.671875 0.0273438 5.25 C 0.148438 5.828125 0.65625 6.25 1.25 6.25 L 1.25 6.5625 C 1.25 7.082031 1.667969 7.5 2.1875 7.5 L 17.8125 7.5 C 18.332031 7.5 18.75 7.082031 18.75 6.5625 L 18.75 6.25 C 19.34375 6.25 19.855469 5.832031 19.972656 5.25 C 20.089844 4.667969 19.785156 4.082031 19.242188 3.851562 L 10.492188 0.101562 C 10.179688 -0.03125 9.820312 -0.03125 9.507812 0.101562 Z M 5 8.75 L 2.5 8.75 L 2.5 16.417969 C 2.476562 16.429688 2.453125 16.445312 2.429688 16.460938 L 0.554688 17.710938 C 0.0976562 18.015625 -0.109375 18.585938 0.0507812 19.113281 C 0.210938 19.640625 0.699219 20 1.25 20 L 18.75 20 C 19.300781 20 19.785156 19.640625 19.945312 19.113281 C 20.105469 18.585938 19.902344 18.015625 19.441406 17.710938 L 17.566406 16.460938 C 17.542969 16.445312 17.519531 16.433594 17.496094 16.417969 L 17.496094 8.75 L 15 8.75 L 15 16.25 L 13.4375 16.25 L 13.4375 8.75 L 10.9375 8.75 L 10.9375 16.25 L 9.0625 16.25 L 9.0625 8.75 L 6.5625 8.75 L 6.5625 16.25 L 5 16.25 Z M 10 2.5 C 10.691406 2.5 11.25 3.058594 11.25 3.75 C 11.25 4.441406 10.691406 5 10 5 C 9.308594 5 8.75 4.441406 8.75 3.75 C 8.75 3.058594 9.308594 2.5 10 2.5 Z M 10 2.5 " />
    </g>
</svg>
