<?xml version="1.0" encoding="UTF-8"?>
<svg xmlns="http://www.w3.org/2000/svg" xmlns:xlink="http://www.w3.org/1999/xlink" width="20px" height="18px"
    viewBox="-1 -1 22 20" version="1.1">
    <g id="surface1">
        <path style="stroke:#000;stroke-width:0.8;fill-rule:nonzero;fill:#5AC5E6;fill-opacity:1;"
            d="M 14.167969 4.21875 C 14.167969 6.136719 11.628906 9.558594 10.515625 10.96875 C 10.246094 11.304688 9.75 11.304688 9.484375 10.96875 C 8.371094 9.558594 5.832031 6.136719 5.832031 4.21875 C 5.832031 1.886719 7.699219 0 10 0 C 12.300781 0 14.167969 1.886719 14.167969 4.21875 Z M 14.445312 7.046875 C 14.566406 6.804688 14.675781 6.558594 14.777344 6.320312 C 14.796875 6.277344 14.8125 6.234375 14.828125 6.191406 L 18.859375 4.558594 C 19.40625 4.339844 20 4.746094 20 5.34375 L 20 14.863281 C 20 15.207031 19.792969 15.519531 19.476562 15.648438 L 14.445312 17.683594 Z M 4.777344 4.863281 C 4.859375 5.359375 5.027344 5.855469 5.222656 6.320312 C 5.324219 6.558594 5.433594 6.804688 5.554688 7.046875 L 5.554688 15.882812 L 1.140625 17.671875 C 0.59375 17.894531 0 17.488281 0 16.890625 L 0 7.367188 C 0 7.023438 0.207031 6.714844 0.523438 6.585938 L 4.78125 4.863281 Z M 11.382812 11.671875 C 11.863281 11.058594 12.621094 10.066406 13.332031 8.964844 L 13.332031 17.730469 L 6.667969 15.800781 L 6.667969 8.964844 C 7.378906 10.066406 8.136719 11.058594 8.617188 11.671875 C 9.328125 12.570312 10.671875 12.570312 11.382812 11.671875 Z M 10 5.34375 C 10.765625 5.34375 11.390625 4.714844 11.390625 3.9375 C 11.390625 3.160156 10.765625 2.53125 10 2.53125 C 9.234375 2.53125 8.609375 3.160156 8.609375 3.9375 C 8.609375 4.714844 9.234375 5.34375 10 5.34375 Z M 10 5.34375 " />
    </g>
</svg>
